<mxfile host="app.diagrams.net" modified="2025-10-25T17:00:00.000Z" agent="5.0" etag="abc123" version="24.7.17">
  <diagram name="AWS Production Architecture" id="aws-prod">
    <mxGraphModel dx="1422" dy="794" grid="1" gridSize="10" guides="1" tooltips="1" connect="1" arrows="1" fold="1" page="1" pageScale="1" pageWidth="1169" pageHeight="827" math="0" shadow="0">
      <root>
        <mxCell id="0" />
        <mxCell id="1" parent="0" />
        
        <!-- AWS Cloud -->
        <mxCell id="aws-cloud" value="AWS Cloud" style="sketch=0;outlineConnect=0;gradientColor=none;html=1;whiteSpace=wrap;fontSize=12;fontStyle=1;shape=mxgraph.aws4.group;grIcon=mxgraph.aws4.group_aws_cloud;strokeColor=#232F3E;fillColor=none;verticalAlign=top;align=left;spacingLeft=30;fontColor=#232F3E;dashed=0;" vertex="1" parent="1">
          <mxGeometry x="40" y="40" width="1080" height="740" as="geometry" />
        </mxCell>
        
        <!-- VPC -->
        <mxCell id="vpc" value="VPC (10.0.0.0/16)" style="sketch=0;outlineConnect=0;gradientColor=none;html=1;whiteSpace=wrap;fontSize=12;fontStyle=1;shape=mxgraph.aws4.group;grIcon=mxgraph.aws4.group_vpc;strokeColor=#248814;fillColor=none;verticalAlign=top;align=left;spacingLeft=30;fontColor=#AAB7B8;dashed=0;" vertex="1" parent="1">
          <mxGeometry x="80" y="100" width="1000" height="640" as="geometry" />
        </mxCell>
        
        <!-- Internet Gateway -->
        <mxCell id="igw" value="Internet Gateway" style="sketch=0;outlineConnect=0;fontColor=#232F3E;gradientColor=none;fillColor=#8C4FFF;strokeColor=none;dashed=0;verticalLabelPosition=bottom;verticalAlign=top;align=center;html=1;fontSize=12;fontStyle=0;aspect=fixed;pointerEvents=1;shape=mxgraph.aws4.internet_gateway;" vertex="1" parent="1">
          <mxGeometry x="540" y="120" width="78" height="78" as="geometry" />
        </mxCell>
        
        <!-- Public Subnets -->
        <mxCell id="public-subnet-1" value="Public Subnet 1&#xa;(10.0.1.0/24)&#xa;us-east-1a" style="sketch=0;outlineConnect=0;gradientColor=none;html=1;whiteSpace=wrap;fontSize=12;fontStyle=0;shape=mxgraph.aws4.group;grIcon=mxgraph.aws4.group_security_group;strokeColor=#7AA116;fillColor=#F2F6E8;verticalAlign=top;align=left;spacingLeft=30;fontColor=#248814;dashed=0;" vertex="1" parent="1">
          <mxGeometry x="120" y="240" width="200" height="120" as="geometry" />
        </mxCell>
        
        <mxCell id="public-subnet-2" value="Public Subnet 2&#xa;(10.0.2.0/24)&#xa;us-east-1b" style="sketch=0;outlineConnect=0;gradientColor=none;html=1;whiteSpace=wrap;fontSize=12;fontStyle=0;shape=mxgraph.aws4.group;grIcon=mxgraph.aws4.group_security_group;strokeColor=#7AA116;fillColor=#F2F6E8;verticalAlign=top;align=left;spacingLeft=30;fontColor=#248814;dashed=0;" vertex="1" parent="1">
          <mxGeometry x="840" y="240" width="200" height="120" as="geometry" />
        </mxCell>
        
        <!-- NAT Gateway -->
        <mxCell id="nat-gw" value="NAT Gateway" style="sketch=0;outlineConnect=0;fontColor=#232F3E;gradientColor=none;fillColor=#8C4FFF;strokeColor=none;dashed=0;verticalLabelPosition=bottom;verticalAlign=top;align=center;html=1;fontSize=12;fontStyle=0;aspect=fixed;pointerEvents=1;shape=mxgraph.aws4.nat_gateway;" vertex="1" parent="1">
          <mxGeometry x="181" y="280" width="78" height="78" as="geometry" />
        </mxCell>
        
        <!-- Private Subnets -->
        <mxCell id="private-subnet-1" value="Private Subnet 1&#xa;(10.0.3.0/24)&#xa;us-east-1a" style="sketch=0;outlineConnect=0;gradientColor=none;html=1;whiteSpace=wrap;fontSize=12;fontStyle=0;shape=mxgraph.aws4.group;grIcon=mxgraph.aws4.group_security_group;strokeColor=#147EBA;fillColor=#E6F2F8;verticalAlign=top;align=left;spacingLeft=30;fontColor=#147EBA;dashed=0;" vertex="1" parent="1">
          <mxGeometry x="120" y="400" width="200" height="300" as="geometry" />
        </mxCell>
        
        <mxCell id="private-subnet-2" value="Private Subnet 2&#xa;(10.0.4.0/24)&#xa;us-east-1b" style="sketch=0;outlineConnect=0;gradientColor=none;html=1;whiteSpace=wrap;fontSize=12;fontStyle=0;shape=mxgraph.aws4.group;grIcon=mxgraph.aws4.group_security_group;strokeColor=#147EBA;fillColor=#E6F2F8;verticalAlign=top;align=left;spacingLeft=30;fontColor=#147EBA;dashed=0;" vertex="1" parent="1">
          <mxGeometry x="840" y="400" width="200" height="300" as="geometry" />
        </mxCell>
        
        <!-- EKS Cluster -->
        <mxCell id="eks-cluster" value="EKS Cluster&#xa;(Fargate)" style="sketch=0;outlineConnect=0;fontColor=#232F3E;gradientColor=none;fillColor=#ED7100;strokeColor=none;dashed=0;verticalLabelPosition=bottom;verticalAlign=top;align=center;html=1;fontSize=12;fontStyle=0;aspect=fixed;pointerEvents=1;shape=mxgraph.aws4.eks_cloud;" vertex="1" parent="1">
          <mxGeometry x="400" y="480" width="78" height="78" as="geometry" />
        </mxCell>
        
        <!-- Fargate Pods -->
        <mxCell id="backend-pod" value="Backend Pod" style="sketch=0;outlineConnect=0;fontColor=#232F3E;gradientColor=none;fillColor=#ED7100;strokeColor=none;dashed=0;verticalLabelPosition=bottom;verticalAlign=top;align=center;html=1;fontSize=12;fontStyle=0;aspect=fixed;pointerEvents=1;shape=mxgraph.aws4.fargate;" vertex="1" parent="1">
          <mxGeometry x="160" y="520" width="50" height="50" as="geometry" />
        </mxCell>
        
        <mxCell id="frontend-pod" value="Frontend Pod" style="sketch=0;outlineConnect=0;fontColor=#232F3E;gradientColor=none;fillColor=#ED7100;strokeColor=none;dashed=0;verticalLabelPosition=bottom;verticalAlign=top;align=center;html=1;fontSize=12;fontStyle=0;aspect=fixed;pointerEvents=1;shape=mxgraph.aws4.fargate;" vertex="1" parent="1">
          <mxGeometry x="240" y="520" width="50" height="50" as="geometry" />
        </mxCell>
        
        <mxCell id="mobile-pod" value="Mobile Pod" style="sketch=0;outlineConnect=0;fontColor=#232F3E;gradientColor=none;fillColor=#ED7100;strokeColor=none;dashed=0;verticalLabelPosition=bottom;verticalAlign=top;align=center;html=1;fontSize=12;fontStyle=0;aspect=fixed;pointerEvents=1;shape=mxgraph.aws4.fargate;" vertex="1" parent="1">
          <mxGeometry x="880" y="520" width="50" height="50" as="geometry" />
        </mxCell>
        
        <!-- Datadog Cluster Agent -->
        <mxCell id="datadog-agent" value="Datadog&#xa;Cluster Agent" style="sketch=0;outlineConnect=0;fontColor=#232F3E;gradientColor=none;fillColor=#ED7100;strokeColor=none;dashed=0;verticalLabelPosition=bottom;verticalAlign=top;align=center;html=1;fontSize=12;fontStyle=0;aspect=fixed;pointerEvents=1;shape=mxgraph.aws4.fargate;" vertex="1" parent="1">
          <mxGeometry x="960" y="520" width="50" height="50" as="geometry" />
        </mxCell>
        
        <!-- Application Load Balancer -->
        <mxCell id="alb" value="Application&#xa;Load Balancer" style="sketch=0;outlineConnect=0;fontColor=#232F3E;gradientColor=none;fillColor=#8C4FFF;strokeColor=none;dashed=0;verticalLabelPosition=bottom;verticalAlign=top;align=center;html=1;fontSize=12;fontStyle=0;aspect=fixed;pointerEvents=1;shape=mxgraph.aws4.application_load_balancer;" vertex="1" parent="1">
          <mxGeometry x="540" y="280" width="78" height="78" as="geometry" />
        </mxCell>
        
        <!-- DynamoDB -->
        <mxCell id="dynamodb" value="DynamoDB&#xa;orders table" style="sketch=0;outlineConnect=0;fontColor=#232F3E;gradientColor=none;fillColor=#C925D1;strokeColor=none;dashed=0;verticalLabelPosition=bottom;verticalAlign=top;align=center;html=1;fontSize=12;fontStyle=0;aspect=fixed;pointerEvents=1;shape=mxgraph.aws4.dynamodb;" vertex="1" parent="1">
          <mxGeometry x="400" y="600" width="78" height="78" as="geometry" />
        </mxCell>
        
        <!-- ECR -->
        <mxCell id="ecr" value="ECR&#xa;Container Registry" style="sketch=0;outlineConnect=0;fontColor=#232F3E;gradientColor=none;fillColor=#ED7100;strokeColor=none;dashed=0;verticalLabelPosition=bottom;verticalAlign=top;align=center;html=1;fontSize=12;fontStyle=0;aspect=fixed;pointerEvents=1;shape=mxgraph.aws4.ecr;" vertex="1" parent="1">
          <mxGeometry x="680" y="480" width="78" height="78" as="geometry" />
        </mxCell>
        
        <!-- CloudWatch -->
        <mxCell id="cloudwatch" value="CloudWatch&#xa;Logs" style="sketch=0;outlineConnect=0;fontColor=#232F3E;gradientColor=none;fillColor=#759C3E;strokeColor=none;dashed=0;verticalLabelPosition=bottom;verticalAlign=top;align=center;html=1;fontSize=12;fontStyle=0;aspect=fixed;pointerEvents=1;shape=mxgraph.aws4.cloudwatch;" vertex="1" parent="1">
          <mxGeometry x="680" y="600" width="78" height="78" as="geometry" />
        </mxCell>
        
        <!-- Secrets Manager -->
        <mxCell id="secrets" value="Secrets Manager" style="sketch=0;outlineConnect=0;fontColor=#232F3E;gradientColor=none;fillColor=#DD344C;strokeColor=none;dashed=0;verticalLabelPosition=bottom;verticalAlign=top;align=center;html=1;fontSize=12;fontStyle=0;aspect=fixed;pointerEvents=1;shape=mxgraph.aws4.secrets_manager;" vertex="1" parent="1">
          <mxGeometry x="520" y="600" width="78" height="78" as="geometry" />
        </mxCell>
        
        <!-- External Services -->
        <mxCell id="datadog-saas" value="Datadog SaaS" style="ellipse;whiteSpace=wrap;html=1;aspect=fixed;fillColor=#e1d5e7;strokeColor=#9673a6;" vertex="1" parent="1">
          <mxGeometry x="1200" y="200" width="80" height="80" as="geometry" />
        </mxCell>
        
        <mxCell id="github" value="GitHub Actions&#xa;CI/CD" style="ellipse;whiteSpace=wrap;html=1;aspect=fixed;fillColor=#f8cecc;strokeColor=#b85450;" vertex="1" parent="1">
          <mxGeometry x="1200" y="320" width="80" height="80" as="geometry" />
        </mxCell>
        
        <!-- Users -->
        <mxCell id="users" value="Users" style="sketch=0;outlineConnect=0;fontColor=#232F3E;gradientColor=none;fillColor=#232F3D;strokeColor=none;dashed=0;verticalLabelPosition=bottom;verticalAlign=top;align=center;html=1;fontSize=12;fontStyle=0;aspect=fixed;pointerEvents=1;shape=mxgraph.aws4.users;" vertex="1" parent="1">
          <mxGeometry x="540" y="20" width="78" height="78" as="geometry" />
        </mxCell>
        
        <!-- Connections -->
        <mxCell id="conn1" style="endArrow=classic;html=1;rounded=0;" edge="1" parent="1" source="users" target="igw">
          <mxGeometry width="50" height="50" relative="1" as="geometry">
            <mxPoint x="580" y="200" as="sourcePoint" />
            <mxPoint x="630" y="150" as="targetPoint" />
          </mxGeometry>
        </mxCell>
        
        <mxCell id="conn2" style="endArrow=classic;html=1;rounded=0;" edge="1" parent="1" source="igw" target="alb">
          <mxGeometry width="50" height="50" relative="1" as="geometry">
            <mxPoint x="580" y="250" as="sourcePoint" />
            <mxPoint x="630" y="200" as="targetPoint" />
          </mxGeometry>
        </mxCell>
        
        <mxCell id="conn3" style="endArrow=classic;html=1;rounded=0;" edge="1" parent="1" source="alb" target="backend-pod">
          <mxGeometry width="50" height="50" relative="1" as="geometry">
            <mxPoint x="500" y="400" as="sourcePoint" />
            <mxPoint x="550" y="350" as="targetPoint" />
          </mxGeometry>
        </mxCell>
        
        <mxCell id="conn4" style="endArrow=classic;html=1;rounded=0;" edge="1" parent="1" source="alb" target="frontend-pod">
          <mxGeometry width="50" height="50" relative="1" as="geometry">
            <mxPoint x="500" y="400" as="sourcePoint" />
            <mxPoint x="550" y="350" as="targetPoint" />
          </mxGeometry>
        </mxCell>
        
        <mxCell id="conn5" style="endArrow=classic;html=1;rounded=0;" edge="1" parent="1" source="backend-pod" target="dynamodb">
          <mxGeometry width="50" height="50" relative="1" as="geometry">
            <mxPoint x="300" y="600" as="sourcePoint" />
            <mxPoint x="350" y="550" as="targetPoint" />
          </mxGeometry>
        </mxCell>
        
        <mxCell id="conn6" style="endArrow=classic;html=1;rounded=0;dashed=1;" edge="1" parent="1" source="datadog-agent" target="datadog-saas">
          <mxGeometry width="50" height="50" relative="1" as="geometry">
            <mxPoint x="1100" y="400" as="sourcePoint" />
            <mxPoint x="1150" y="350" as="targetPoint" />
          </mxGeometry>
        </mxCell>
        
        <mxCell id="conn7" style="endArrow=classic;html=1;rounded=0;dashed=1;" edge="1" parent="1" source="eks-cluster" target="github">
          <mxGeometry width="50" height="50" relative="1" as="geometry">
            <mxPoint x="600" y="500" as="sourcePoint" />
            <mxPoint x="650" y="450" as="targetPoint" />
          </mxGeometry>
        </mxCell>
        
        <!-- Labels -->
        <mxCell id="label1" value="HTTPS/HTTP" style="text;html=1;strokeColor=none;fillColor=none;align=center;verticalAlign=middle;whiteSpace=wrap;rounded=0;fontSize=10;" vertex="1" parent="1">
          <mxGeometry x="620" y="110" width="60" height="30" as="geometry" />
        </mxCell>
        
        <mxCell id="label2" value="Blue/Green&#xa;Deployment" style="text;html=1;strokeColor=none;fillColor=none;align=center;verticalAlign=middle;whiteSpace=wrap;rounded=0;fontSize=10;" vertex="1" parent="1">
          <mxGeometry x="350" y="400" width="60" height="30" as="geometry" />
        </mxCell>
        
        <mxCell id="label3" value="IRSA&#xa;(No static keys)" style="text;html=1;strokeColor=none;fillColor=none;align=center;verticalAlign=middle;whiteSpace=wrap;rounded=0;fontSize=10;" vertex="1" parent="1">
          <mxGeometry x="300" y="580" width="80" height="30" as="geometry" />
        </mxCell>
        
        <mxCell id="label4" value="APM Agentless" style="text;html=1;strokeColor=none;fillColor=none;align=center;verticalAlign=middle;whiteSpace=wrap;rounded=0;fontSize=10;" vertex="1" parent="1">
          <mxGeometry x="1100" y="300" width="80" height="30" as="geometry" />
        </mxCell>
        
        <mxCell id="label5" value="OIDC&#xa;(No long-lived keys)" style="text;html=1;strokeColor=none;fillColor=none;align=center;verticalAlign=middle;whiteSpace=wrap;rounded=0;fontSize=10;" vertex="1" parent="1">
          <mxGeometry x="800" y="400" width="100" height="30" as="geometry" />
        </mxCell>
      </root>
    </mxGraphModel>
  </diagram>
</mxfile>